<svg width="1200" height="340" viewBox="0 0 1200 340" xmlns="http://www.w3.org/2000/svg" role="img" aria-label="Lexicon — English vocabulary">
  <defs>
    <linearGradient id="leather" x1="0" y1="0" x2="1" y2="1">
      <stop offset="0" stop-color="#7a2724"/>
      <stop offset="0.5" stop-color="#5f1f1c"/>
      <stop offset="1" stop-color="#40100e"/>
    </linearGradient>
    <linearGradient id="gold" x1="0" y1="0" x2="1" y2="1">
      <stop offset="0" stop-color="#f6e6a6"/>
      <stop offset="0.5" stop-color="#e0bd63"/>
      <stop offset="1" stop-color="#b8862f"/>
    </linearGradient>
    <linearGradient id="page" x1="0" y1="0" x2="0" y2="1">
      <stop offset="0" stop-color="#fdf6e3"/>
      <stop offset="1" stop-color="#efdfba"/>
    </linearGradient>
    <radialGradient id="sheen" cx="0.25" cy="0.15" r="1">
      <stop offset="0" stop-color="#ffffff" stop-opacity="0.14"/>
      <stop offset="0.55" stop-color="#ffffff" stop-opacity="0"/>
    </radialGradient>
    <filter id="soft" x="-20%" y="-20%" width="140%" height="140%">
      <feDropShadow dx="0" dy="6" stdDeviation="9" flood-color="#000000" flood-opacity="0.4"/>
    </filter>
  </defs>

  <rect width="1200" height="340" rx="20" fill="url(#leather)"/>
  <rect width="1200" height="340" rx="20" fill="url(#sheen)"/>

  <rect x="22" y="22" width="1156" height="296" rx="12" fill="none" stroke="url(#gold)" stroke-width="4"/>
  <rect x="34" y="34" width="1132" height="272" rx="8" fill="none" stroke="url(#gold)" stroke-width="1.5" opacity="0.75"/>

  <g transform="translate(96,70)" filter="url(#soft)">
    <rect x="0" y="0" width="200" height="200" rx="34" fill="#4c1917"/>
    <rect x="14" y="14" width="172" height="172" rx="26" fill="none" stroke="url(#gold)" stroke-width="4"/>
    <g transform="translate(100,100)">
      <path d="M0 -34 C-30 -48 -66 -52 -92 -46 L-92 62 C-66 56 -30 60 0 74 C30 60 66 56 92 62 L92 -46 C66 -52 30 -48 0 -34 Z" fill="#2f0f0d"/>
      <path d="M-4 -30 C-30 -42 -62 -46 -86 -40 L-86 56 C-62 50 -30 54 -4 66 Z" fill="url(#page)" stroke="#c9b184" stroke-width="1.5"/>
      <path d="M4 -30 C30 -42 62 -46 86 -40 L86 56 C62 50 30 54 4 66 Z" fill="url(#page)" stroke="#c9b184" stroke-width="1.5"/>
      <text x="-44" y="34" font-family="Georgia, 'Times New Roman', serif" font-size="66" font-weight="700" text-anchor="middle" fill="#7a2321">A</text>
      <g stroke="#2f5d7c" stroke-width="5" stroke-linecap="round" opacity="0.75">
        <line x1="20" y1="-20" x2="66" y2="-24"/>
        <line x1="20" y1="0" x2="70" y2="-4"/>
        <line x1="20" y1="20" x2="64" y2="16"/>
        <line x1="20" y1="40" x2="68" y2="36"/>
      </g>
      <path d="M0 -46 L0 44 L-8 32 L-16 44 L-16 -50 Z" fill="#a3352f" stroke="#7a231f" stroke-width="1"/>
    </g>
  </g>

  <text x="350" y="158" font-family="Georgia, 'Palatino Linotype', 'Times New Roman', serif" font-size="92" font-weight="700" fill="url(#gold)" letter-spacing="2">Lexicon</text>
  <line x1="352" y1="188" x2="900" y2="188" stroke="url(#gold)" stroke-width="2" opacity="0.7"/>
  <text x="352" y="232" font-family="Georgia, 'Palatino Linotype', 'Times New Roman', serif" font-size="30" fill="#f0dcae">English vocabulary · flashcard learning</text>
  <text x="352" y="272" font-family="Georgia, 'Palatino Linotype', 'Times New Roman', serif" font-size="21" fill="#d7b98f" font-style="italic">Transcription · audio · groups · statistics</text>
</svg>
